<svg aria-hidden="true" style="position: absolute; width: 0; height: 0; overflow: hidden;" version="1.1" xmlns="http://www.w3.org/2000/svg" xmlns:xlink="http://www.w3.org/1999/xlink">
<defs>
<symbol id="icon-css-svg" viewBox="0 0 22 32">
<path fill="#0a3cff" style="fill: var(--color1, #0a3cff)" d="M10.989 22.022c-0.089-0.012-3.565-0.983-4.023-1.113-0.020-0.006-0.041-0.012-0.061-0.017l-0.065-0.028-0.288-3.167 2.029-0.001 0.145 1.611 2.256 0.609 0.017-0.001-0.011-0.038c-0.001-0.015 0-0.041 0-0.057 0-0.033 0-0.067 0-0.1v-3.020c-0.755-0.002-1.511 0-2.266 0l-2.24-0.003c-0.029-0.008-0.016-0.004-0.028-0.014 0.009-0.087-0.071-0.86-0.085-1.017-0.030-0.333-0.066-0.671-0.089-1.006h4.698c0.031-0.085 0.011-0.877 0.011-1.034 0-0.175 0-0.349 0-0.524 0-0.154-0.012-0.367 0.003-0.514l-4.894-0.005-0.181-1.966c0.005-0.054-0.016-0.038 0.019-0.051l5.052-0.003v-2.022h6.609l-1.257 14.096c-0.074 0.036-0.241 0.070-0.329 0.095l-1.003 0.279c-0.444 0.126-0.896 0.255-1.344 0.372-0.448 0.116-0.891 0.251-1.335 0.37-0.165 0.044-1.281 0.366-1.341 0.365v-2.093zM4.377 23.697c0.098 0.008 0.308 0.084 0.413 0.111l2.467 0.686c0.144 0.041 0.279 0.080 0.418 0.116 0.409 0.107 0.818 0.237 1.23 0.34 0.419 0.105 0.82 0.225 1.239 0.344 0.066 0.018 0.783 0.23 0.829 0.23 0.038 0 0.163-0.039 0.206-0.052l1.448-0.401c0.141-0.036 0.276-0.080 0.411-0.114 0.553-0.14 1.104-0.314 1.658-0.459 0.139-0.036 0.274-0.075 0.418-0.116 0.151-0.042 2.405-0.679 2.49-0.685l0.367-4.123c0.011-0.256 0.054-0.507 0.067-0.768 0.004-0.079 0.015-0.179 0.024-0.266 0.027-0.25 0.033-0.507 0.070-0.766 0.024-0.167 0.027-0.357 0.049-0.52l0.069-0.777c0.025-0.435 0.079-0.855 0.113-1.291 0.022-0.286 0.055-0.745 0.092-1.024 0.042-0.326 0.052-0.705 0.094-1.031 0.011-0.086 0.015-0.178 0.024-0.255 0.009-0.088 0.014-0.177 0.022-0.255 0.010-0.089 0.019-0.185 0.024-0.266 0.019-0.347 0.071-0.688 0.090-1.035l0.115-1.289c0.034-0.238 0.046-0.532 0.072-0.776 0.009-0.086 0.017-0.177 0.023-0.254l0.045-0.513c0.015-0.263 0.059-0.516 0.067-0.779 0.005-0.17 0.045-0.348 0.045-0.524h-16.168c0 0.206 0.165 1.803 0.179 2.060l0.081 0.901c0.038 0.29 0.039 0.606 0.081 0.899 0.036 0.245 0.053 0.534 0.071 0.776 0.014 0.18 0.038 0.35 0.045 0.524 0.012 0.26 0.059 0.509 0.067 0.768l0.093 1.033c0.029 0.223 0.039 0.565 0.070 0.777l0.138 1.544c0.009 0.259 0.056 0.51 0.068 0.769 0.010 0.235 0.064 0.775 0.091 1.034 0.009 0.079 0.013 0.178 0.025 0.264 0.025 0.17 0.023 0.34 0.046 0.511l0.229 2.59c0.031 0.297 0.055 0.761 0.094 1.031 0.024 0.165 0.050 0.575 0.070 0.766 0.005 0.047 0.008 0.097 0.011 0.134 0.005 0.049 0.010 0.095 0.013 0.133z"></path>
<path fill="#195eff" style="fill: var(--color2, #195eff)" d="M10.989 10.561l5.064 0.003-0.924 10.311c-0.349 0.087-0.693 0.194-1.041 0.287-0.687 0.183-1.368 0.384-2.059 0.571-0.154 0.042-0.947 0.281-1.032 0.277l-0.008 0.012v2.093c0.060 0.001 1.177-0.321 1.341-0.365 0.444-0.119 0.887-0.253 1.335-0.37 0.447-0.116 0.9-0.246 1.344-0.372l1.003-0.279c0.087-0.025 0.254-0.059 0.329-0.095l1.257-14.096h-6.609v2.022z"></path>
<path fill="#fff" style="fill: var(--color3, #fff)" d="M5.917 10.615l-0.003-0.055h5.059c0.017 0.046 0.010 0.19 0.010 0.246 0 0.303-0.013 1.707 0.010 1.781h2.841l-0.183 2.072h-2.672l0.004 2.025h2.489l-0.231 2.618c-0.055 0.032-2.1 0.571-2.241 0.613l-0.017 0.001v1.842c0 0.064-0.024 0.209 0.014 0.252 0.085 0.004 0.878-0.235 1.032-0.277 0.691-0.187 1.372-0.388 2.059-0.571 0.348-0.093 0.692-0.199 1.041-0.287l0.924-10.311h-10.116c-0.036 0.013-0.014-0.003-0.019 0.051z"></path>
<path fill="#eaeaea" style="fill: var(--color4, #eaeaea)" d="M10.989 22.022l0.008-0.012c-0.038-0.043-0.014-0.189-0.014-0.252v-1.842l-2.256-0.609-0.145-1.611-2.029 0.001 0.288 3.167 0.065 0.028c0.020 0.005 0.041 0.011 0.061 0.017 0.458 0.13 3.934 1.101 4.023 1.113z"></path>
<path fill="#eaeaea" style="fill: var(--color4, #eaeaea)" d="M5.917 10.615l0.181 1.966 4.894 0.005c-0.023-0.074-0.010-1.478-0.010-1.781 0-0.056 0.008-0.199-0.010-0.246h-5.059l0.003 0.055z"></path>
<path fill="#eaeaea" style="fill: var(--color4, #eaeaea)" d="M6.455 16.682l4.527 0.001-0.004-2.024h-4.698c0.024 0.335 0.059 0.673 0.089 1.006 0.014 0.157 0.094 0.93 0.085 1.017z"></path>
<path fill="#f0f0f0" style="fill: var(--color5, #f0f0f0)" d="M9.647 4.711h1.427v0.178h-1.427v0.936h2.462v-2.050h-1.425v-0.178h1.425v-0.892h-2.462v2.006z"></path>
<path fill="#f0f0f0" style="fill: var(--color5, #f0f0f0)" d="M12.589 4.711h1.427v0.178h-1.427v0.936h2.462v-2.050h-1.425v-0.178h1.425v-0.892h-2.462v2.006z"></path>
<path fill="#195eff" style="fill: var(--color2, #195eff)" d="M11 19.914c0.141-0.042 2.186-0.581 2.241-0.613l0.231-2.618-7.016-0.001c0.012 0.010-0.001 0.006 0.028 0.014l2.24 0.003c0.755 0 1.511-0.002 2.266 0v3.020c0 0.033 0 0.067 0 0.1 0 0.016-0.001 0.042 0 0.057l0.011 0.038z"></path>
<path fill="#f0f0f0" style="fill: var(--color5, #f0f0f0)" d="M6.706 5.78h2.462v-1.026h-1.427v-1.025h1.427v-1.026h-2.462v3.076z"></path>
<path fill="#195eff" style="fill: var(--color2, #195eff)" d="M10.978 14.659h2.672l0.183-2.072h-2.841c-0.015 0.147-0.003 0.36-0.003 0.514 0 0.175 0 0.349 0 0.524 0 0.157 0.020 0.949-0.011 1.034z"></path>
</symbol>
<symbol id="icon-html-svg" viewBox="0 0 22 32">
<path fill="#ff3c0a" style="fill: var(--color6, #ff3c0a)" d="M10.98 22.025l-4.136-1.156c-0.005-0.011-0.298-3.015-0.289-3.175h2.028l0.148 1.619 2.258 0.6v-2.445c0-0.072 0.018-0.721-0.014-0.79-0.361-0.018-0.766-0.001-1.132-0.001-0.375 0-0.751 0-1.126 0-0.256 0-2.173 0.015-2.255-0.008l-0.55-6.046 0.001-0.061 5.076-0.001 0.006-2.019h6.605c-0.098 1.179-0.213 2.354-0.317 3.532l-0.63 7.044c-0.054 0.586-0.107 1.172-0.157 1.758l-0.165 1.744c0-0.001-0.002 0.006-0.003 0.010l-5.337 1.488c-0.016-0.338-0.002-0.715-0.002-1.058l-0.006-1.028c0-0.004-0.002-0.005-0.002-0.009zM10.979 25.525c0.069 0 0.253-0.067 0.325-0.087 0.11-0.030 0.218-0.063 0.323-0.089l3.227-0.894c0.431-0.127 0.864-0.236 1.3-0.36 0.435-0.125 0.857-0.236 1.291-0.359 0.213-0.060 0.147-0.004 0.177-0.236 0.030-0.231 0.036-0.527 0.069-0.755 0.036-0.25 0.031-0.506 0.068-0.756 0.037-0.251 0.031-0.506 0.067-0.757 0.018-0.126 0.020-0.262 0.036-0.377 0.008-0.058 0.012-0.133 0.014-0.186 0.002-0.055 0.013-0.144 0.019-0.193 0.029-0.231 0.063-0.699 0.082-0.955 0.032-0.43 0.098-0.904 0.122-1.326 0.014-0.255 0.056-0.507 0.067-0.757 0.014-0.33 0.086-0.809 0.1-1.137 0.011-0.254 0.059-0.502 0.067-0.757 0.008-0.25 0.053-0.504 0.067-0.757 0.008-0.124 0.027-0.248 0.033-0.379 0.016-0.311 0.064-0.631 0.088-0.948l0.033-0.379c0.015-0.192 0.023-0.376 0.049-0.575 0.032-0.252 0.031-0.498 0.069-0.755 0.018-0.128 0.015-0.251 0.033-0.379 0.018-0.127 0.014-0.251 0.033-0.379 0.036-0.248 0.039-0.519 0.070-0.765l0.047-0.565c0.003-0.055 0.015-0.14 0.020-0.192 0.014-0.129 0.022-0.259 0.033-0.379 0.008-0.070 0.009-0.117 0.014-0.186l0.136-1.525c0.005-0.041 0.019-0.147 0.019-0.192h-16.179l0.067 0.757c0.019 0.345 0.072 0.769 0.101 1.136 0.010 0.123 0.024 0.249 0.033 0.378l0.053 0.56c0.008 0.072 0.008 0.125 0.015 0.197 0.013 0.121 0.019 0.249 0.033 0.378 0.024 0.227 0.042 0.552 0.068 0.756 0.015 0.117 0.017 0.252 0.033 0.379 0.032 0.253 0.031 0.499 0.069 0.756 0.037 0.25 0.030 0.506 0.067 0.757 0.018 0.127 0.016 0.25 0.034 0.377 0.037 0.251 0.031 0.507 0.067 0.757l0.117 1.321c0.002 0.055 0.014 0.14 0.019 0.192l0.067 0.757c0.008 0.070 0.009 0.117 0.014 0.187l0.087 0.948c0.011 0.127 0.028 0.259 0.034 0.378 0.006 0.131 0.026 0.256 0.033 0.379 0.014 0.26 0.060 0.513 0.067 0.768 0.006 0.252 0.056 0.505 0.067 0.757 0.005 0.122 0.028 0.254 0.033 0.379 0.005 0.123 0.027 0.25 0.034 0.378 0.006 0.123 0.026 0.252 0.033 0.379 0.019 0.363 0.071 0.762 0.1 1.136l0.068 0.757c0.019 0.179 0.026 0.375 0.052 0.56 0.011 0.071 0.026 0.054 0.131 0.081 0.112 0.028 0.211 0.057 0.323 0.089l3.56 0.986c0.216 0.063 0.434 0.115 0.646 0.178l0.645 0.18c0.216 0.056 0.431 0.117 0.645 0.178 0.108 0.030 0.216 0.060 0.323 0.089 0.083 0.022 0.253 0.089 0.335 0.089z"></path>
<path fill="#ff5e1a" style="fill: var(--color7, #ff5e1a)" d="M10.989 10.562h5.064l-0.187 2.023-4.875 0.001v2.051c-0.088 0.024-2.517 0.009-2.675 0.009l0.016 0.008c0.003 0.001 0.006 0.002 0.010 0.003 0.003 0 0.005 0.001 0.009 0.001l0.123 0.001c0.816-0.001 1.719 0.015 2.509-0.001h4.702l-0.563 6.215c-0.346 0.085-0.696 0.195-1.039 0.288-0.347 0.095-0.693 0.189-1.038 0.289-0.187 0.054-1.958 0.531-2.063 0.575 0 0.003 0.002 0.004 0.002 0.009l0.006 1.028c0 0.343-0.014 0.72 0.002 1.058l5.337-1.488c0.001-0.003 0.003-0.011 0.003-0.010l0.165-1.744c0.051-0.586 0.103-1.172 0.157-1.758l0.63-7.044c0.103-1.178 0.219-2.353 0.317-3.532h-6.605l-0.006 2.019z"></path>
<path fill="#eaeaea" style="fill: var(--color4, #eaeaea)" d="M5.912 10.625l0.55 6.046c0.082 0.023 1.999 0.008 2.255 0.008 0.375 0 0.751 0 1.126 0 0.366 0 0.771-0.017 1.132 0.001 0.020-0.089 0.006-0.391 0.006-0.503 0-0.167 0-0.334 0-0.501 0-0.338 0-0.677 0-1.016-0.791 0.016-1.694 0-2.509 0.001l-0.123-0.001c-0.003 0-0.005-0.001-0.009-0.001-0.003-0.001-0.006-0.002-0.010-0.003l-0.016-0.008-0.181-2.060 2.848 0.001-0.002-2.028h-5.070l0.003 0.065z"></path>
<path fill="#fff" style="fill: var(--color3, #fff)" d="M10.975 16.679l2.496 0.003c0.014 0.112-0.041 0.512-0.053 0.652-0.019 0.221-0.040 0.443-0.059 0.664-0.020 0.218-0.039 0.436-0.059 0.652-0.015 0.162-0.028 0.53-0.065 0.664l-2.223 0.598c-0.028 0.024 0.032 0.019-0.031 0.019l-0.001 2.095c0.106-0.044 1.876-0.521 2.063-0.575 0.345-0.1 0.691-0.194 1.038-0.289 0.343-0.093 0.693-0.203 1.039-0.288l0.563-6.215h-4.702c0 0.339 0 0.678 0 1.016 0 0.167 0 0.334 0 0.501 0 0.112 0.014 0.414-0.006 0.503z"></path>
<path fill="#eaeaea" style="fill: var(--color4, #eaeaea)" d="M10.98 22.025l0.001-2.095c0.064 0 0.003 0.004 0.031-0.019l-0.024 0.002-2.258-0.6-0.148-1.619h-2.028c-0.010 0.161 0.283 3.164 0.289 3.175l4.136 1.156z"></path>
<path fill="#fff" style="fill: var(--color3, #fff)" d="M5.912 10.625l-0.003-0.065h5.070l0.002 2.028 4.884-0.002 0.187-2.023-10.14 0.001-0.001 0.061z"></path>
<path fill="#f0f0f0" style="fill: var(--color5, #f0f0f0)" d="M11.146 5.78h1.014l0.010-1.492 0.523 0.803c0.028 0.042 0.144 0.253 0.192 0.266l0.703-1.082v1.505h1.035v-3.076h-1.091c-0.011 0.042-0.056 0.099-0.078 0.135-0.148 0.245-0.42 0.714-0.569 0.935-0.039-0.028-0.523-0.841-0.583-0.944-0.017-0.028-0.027-0.042-0.043-0.068-0.016-0.028-0.019-0.058-0.054-0.058h-1.058v3.076z"></path>
<path fill="#f0f0f0" style="fill: var(--color5, #f0f0f0)" d="M4.405 5.78h1.047v-1.026h0.926v1.026h1.035v-3.076h-1.035v1.014h-0.936v-1.014h-1.037v3.076z"></path>
<path fill="#ff5e1a" style="fill: var(--color7, #ff5e1a)" d="M10.989 19.913l0.024-0.002 2.223-0.598c0.037-0.134 0.050-0.502 0.065-0.664 0.020-0.215 0.039-0.434 0.059-0.652 0.019-0.221 0.040-0.443 0.059-0.664 0.012-0.14 0.067-0.54 0.053-0.652l-2.496-0.003c0.032 0.069 0.014 0.718 0.014 0.79v2.445z"></path>
<path fill="#ff3d0a" style="fill: var(--color8, #ff3d0a)" d="M8.315 14.647c0.158 0 2.587 0.015 2.675-0.009v-2.051h-2.856l0.181 2.060z"></path>
<path fill="#f0f0f0" style="fill: var(--color5, #f0f0f0)" d="M7.848 3.73h0.914v2.050h1.025v-2.050h0.914v-1.026h-2.852v1.026z"></path>
<path fill="#f0f0f0" style="fill: var(--color5, #f0f0f0)" d="M15.112 5.78h2.496v-0.992c0-0.026-0.008-0.033-0.033-0.033h-1.427v-2.050h-1.037v3.076z"></path>
</symbol>
<symbol id="icon-js-svg" viewBox="0 0 22 32">
<path fill="#ffa80a" style="fill: var(--color9, #ffa80a)" d="M10.895 21.998l-2.032-0.56c-0.097-0.027-1.97-0.541-2.006-0.586-0.123-0.149-0.31-2.831-0.316-3.186 0.173-0.014 1.999-0.012 2.056 0.008l0.143 1.582c0.373 0.067 1.921 0.571 2.152 0.562l0.055-0.006c0.075-0.248 0.049-1.233 0.050-1.552 0-0.528 0-1.055 0-1.583h-4.454c-0.012-0.282 0.041-0.651 0.064-0.94 0.024-0.305 0.057-0.612 0.080-0.918 0.047-0.615 0.109-1.236 0.164-1.849 0.055-0.611 0.103-1.233 0.168-1.845l0.131-1.376c0.014-0.125 0.022-0.333 0.047-0.444 0.017-0.017 0.005-0.012 0.037-0.024 0.040-0.016 0.286-0.025 0.328-0.026 0.126-0.004 0.255-0.005 0.381-0.010l0.026-0.009c0.071-0.018-0.033 0.004 0.027-0.006l3.001-0.011 0.003-0.752h6.573c0.025 0.171-0.016 0.486-0.029 0.668-0.016 0.212-0.036 0.425-0.052 0.637-0.034 0.428-0.074 0.85-0.109 1.278-0.068 0.846-0.148 1.697-0.226 2.541-0.158 1.693-0.306 3.387-0.464 5.079-0.115 1.228-0.228 2.58-0.371 3.799-0.002 0.019-0.006 0.069-0.012 0.085-0.014 0.049 0.009 0.019-0.034 0.045l-0.386 0.126c-0.859 0.261-1.832 0.541-2.69 0.763-0.367 0.095-0.722 0.201-1.091 0.3l-1.020 0.276c-0.102 0.014-0.026 0.015-0.058-0.013-0.044-0.066-0.036-1.578-0.033-1.88 0.001-0.179-0.001-0.136-0.041-0.15l-0.059-0.024zM2.95 7.224c0.001 0.335 0.041 0.71 0.073 1.045 0.1 1.029 0.167 2.049 0.269 3.089 0.135 1.365 0.229 2.738 0.364 4.1 0.136 1.368 0.228 2.746 0.368 4.111 0.070 0.685 0.123 1.376 0.183 2.061 0.030 0.339 0.067 0.683 0.092 1.026 0.024 0.322 0.050 0.698 0.094 1.016 0.261 0.057 0.565 0.154 0.831 0.231l4.98 1.388c0.137 0.038 0.274 0.073 0.414 0.113 0.134 0.039 0.277 0.098 0.417 0.064 0.563-0.134 1.13-0.295 1.684-0.447 1.385-0.381 2.766-0.754 4.144-1.158 0.217-0.064 0.637-0.163 0.751-0.305 0.001-0.052 0.019-0.152 0.025-0.2 0.009-0.083 0.009-0.141 0.019-0.224 0.011-0.088 0.045-0.339 0.031-0.435 0.017-0.322 0.060-0.65 0.085-0.971 0.025-0.318 0.055-0.65 0.088-0.969 0.067-0.641 0.11-1.289 0.171-1.932 0.124-1.283 0.244-2.576 0.346-3.863 0.102-1.289 0.24-2.58 0.339-3.868 0.049-0.64 0.108-1.295 0.17-1.935 0.031-0.324 0.161-1.706 0.156-1.936l-0.002-0.068h-16.094v0.068z"></path>
<path fill="#ffc415" style="fill: var(--color10, #ffc415)" d="M7.942 9.247l5.531 0.006c0.607 0 1.233-0.011 1.837 0.005l0.398 4.377-1.614-0.002c-0.612-0.006-0.468 0.014-0.518-0.571-0.015-0.17-0.031-0.343-0.049-0.51l-0.081-0.741c-0.009-0.067-0.004-0.197-0.049-0.236-0.073-0.076-1.065-0.1-1.247-0.107l-1.147-0.036c-0.032-0.009-0.022-0.012-0.067-0.012 0 0-0.039 0.002-0.040 0.002-0.082 0.011 0.043-0.011-0.024 0.004l-0.023 0.008c0.058 0.011 0.070 0.004 0.129-0.004 0.046 0.111 0.017 1.367 0.017 1.595 0 0.217 0.022 1.49-0.013 1.59 0.386-0.013 0.792-0.001 1.18-0.001 0.396 0 0.792 0.001 1.187 0.001 0.336 0 2.144-0.022 2.319 0.052 0.063 0.026 0.029 0.106 0.022 0.176-0.008 0.063-0.013 0.129-0.019 0.192-0.18 1.815-0.322 3.632-0.506 5.451-0.008 0.069-0.015 0.135-0.023 0.201-0.010 0.080 0.008 0.128-0.067 0.153l-0.304 0.105c-0.315 0.085-0.632 0.191-0.95 0.281-0.38 0.107-2.729 0.787-2.926 0.773l0.059 0.024c0.040 0.014 0.042-0.029 0.041 0.15-0.002 0.302-0.011 1.814 0.033 1.88 0.032 0.028-0.044 0.027 0.058 0.013l1.020-0.276c0.37-0.098 0.724-0.205 1.091-0.3 0.859-0.222 1.832-0.502 2.69-0.763l0.386-0.126c0.043-0.026 0.020 0.003 0.034-0.045 0.005-0.016 0.010-0.066 0.012-0.085 0.142-1.219 0.255-2.571 0.371-3.799 0.158-1.692 0.306-3.386 0.464-5.079 0.079-0.844 0.158-1.695 0.226-2.541 0.034-0.428 0.074-0.85 0.109-1.278 0.016-0.212 0.036-0.425 0.052-0.637 0.013-0.182 0.054-0.497 0.029-0.668h-6.573l-0.003 0.752-3.001 0.011c-0.060 0.011 0.044-0.012-0.027 0.006l-0.026 0.009z"></path>
<path fill="#daeafb" style="fill: var(--color11, #daeafb)" d="M10.995 9.291c0.115-0.022 3.478-0.005 3.799 0.002l0.378 0.022c0.061 0.009 0.073 0.008 0.109 0.042l0.286 3.164c0.036 0.359 0.079 0.708 0.111 1.060h-2.003c-0.040-0.336-0.081-0.669-0.11-1.014-0.029-0.332-0.073-0.703-0.085-1.035-0.446-0.114-2.26-0.099-2.481-0.148l-0.003-2.093zM10.996 16.677l2.457 0.001c-0.044 0.436-0.099 0.867-0.136 1.312-0.012 0.149-0.083 1.214-0.159 1.264-0.088 0.058-0.943 0.273-1.111 0.319-0.143 0.039-1.085 0.317-1.155 0.245-0.231 0.009-1.779-0.496-2.152-0.562l-0.143-1.582c-0.057-0.019-1.882-0.022-2.056-0.008 0.005 0.354 0.193 3.037 0.316 3.186 0.037 0.045 1.909 0.559 2.006 0.586l2.032 0.56c0.197 0.014 2.546-0.666 2.926-0.773 0.318-0.090 0.636-0.196 0.95-0.281-0.014-0.018 0.025-0.037-0.116 0.009l-0.345 0.1c-0.156 0.043-0.315 0.090-0.474 0.134-0.787 0.214-1.572 0.441-2.361 0.646-0.106 0.028-0.38 0.116-0.483 0.119-0.081-0.194-0.053-1.708-0.053-2.042 0.107-0.043 0.955-0.258 1.146-0.31 0.175-0.047 1.047-0.271 1.109-0.35 0.091-0.119 0.232-2.255 0.303-2.622l-2.557-0.001-0.001-2.009h-2.153c0.014-0.19 0.259-2.985 0.308-3.135 0.232-0.009 1.65-0.080 1.754-0.046l0.023-0.008c0.067-0.015-0.058 0.006 0.024-0.004 0.001 0 0.040-0.002 0.040-0.002 0.045 0 0.034 0.003 0.067 0.012l1.147 0.036c0.182 0.006 1.173 0.030 1.247 0.107 0.044 0.039 0.040 0.169 0.049 0.236l0.081 0.741c0.017 0.167 0.033 0.339 0.049 0.51 0.051 0.585-0.094 0.565 0.518 0.571l1.614 0.002-0.398-4.377c-0.604-0.016-1.23-0.005-1.837-0.005l-5.53-0.006c-0.126 0.004-0.255 0.005-0.381 0.010-0.042 0.001-0.288 0.010-0.328 0.026-0.031 0.012-0.019 0.006-0.037 0.024-0.026 0.111-0.033 0.319-0.047 0.444l-0.131 1.376c-0.065 0.612-0.113 1.234-0.168 1.845-0.055 0.613-0.116 1.234-0.164 1.849-0.023 0.306-0.056 0.613-0.080 0.918-0.023 0.289-0.075 0.657-0.064 0.94h4.454z"></path>
<path fill="#fff" style="fill: var(--color3, #fff)" d="M14.772 20.944l0.304-0.105 0.050-0.357c0.099-0.891 0.175-1.82 0.256-2.713 0.047-0.519 0.098-1.043 0.138-1.562 0.041-0.513 0.109-1.033 0.15-1.541-0.175-0.073-1.982-0.052-2.319-0.052-0.395 0-0.791-0.001-1.187-0.001-0.388 0-0.794-0.012-1.18 0.001l-0.043 0.001 0.001 2.009 2.557 0.001c-0.071 0.367-0.212 2.504-0.303 2.622-0.061 0.079-0.934 0.303-1.109 0.35-0.192 0.053-1.040 0.267-1.146 0.31 0 0.334-0.028 1.848 0.053 2.042 0.102-0.002 0.377-0.090 0.483-0.119 0.789-0.206 1.574-0.432 2.361-0.646 0.159-0.043 0.318-0.090 0.474-0.134l0.345-0.1c0.141-0.045 0.102-0.027 0.116-0.009z"></path>
<path fill="#fff" style="fill: var(--color3, #fff)" d="M10.999 11.384c0.221 0.049 2.035 0.033 2.481 0.148 0.012 0.333 0.056 0.704 0.085 1.035 0.029 0.345 0.070 0.678 0.11 1.014h2.003c-0.032-0.352-0.075-0.701-0.111-1.060l-0.286-3.164c-0.036-0.034-0.047-0.033-0.109-0.042l-0.378-0.022c-0.321-0.008-3.684-0.024-3.799-0.002l0.003 2.093z"></path>
<path fill="#ffc415" style="fill: var(--color10, #ffc415)" d="M10.892 19.817c0.070 0.072 1.012-0.206 1.155-0.245 0.168-0.046 1.023-0.261 1.111-0.319 0.076-0.050 0.148-1.115 0.159-1.264 0.037-0.445 0.092-0.876 0.136-1.312l-2.457-0.001c0 0.528 0 1.055 0 1.583-0.001 0.319 0.026 1.304-0.050 1.552l-0.055 0.006z"></path>
<path fill="#f0f0f0" style="fill: var(--color5, #f0f0f0)" d="M11.044 3.379c0 0.040 0.054 0.072 0.078 0.098l1.285 1.427c-0.461 0.039-0.895 0.027-1.363 0.027v0.823h2.888v-0.701c0-0.042-0.127-0.161-0.159-0.192l-0.344-0.372c-0.039-0.039-0.047-0.053-0.082-0.094l-0.345-0.371c-0.049-0.061-0.385-0.397-0.433-0.47 0.123 0 0.19-0.014 0.31-0.013 0.112 0 0.225-0.001 0.337 0 0.113 0 0.197-0.014 0.323-0.014 0.113 0 0.225 0 0.337 0v-0.823h-2.833v0.674z"></path>
<path fill="#ffa80a" style="fill: var(--color9, #ffa80a)" d="M10.94 14.617l0.043-0.001c0.034-0.1 0.013-1.374 0.013-1.59 0-0.227 0.029-1.484-0.017-1.595-0.059 0.009-0.071 0.015-0.129 0.004-0.104-0.033-1.522 0.038-1.754 0.046-0.050 0.151-0.294 2.946-0.308 3.135h2.153z"></path>
<path fill="#f0f0f0" style="fill: var(--color5, #f0f0f0)" d="M9.519 4.715h-1.457v1.039h2.468c0.031 0 0.041-0.010 0.041-0.041v-3.008h-1.053v2.010z"></path>
<path fill="#daeafb" style="fill: var(--color11, #daeafb)" d="M17.614 23.557c-0.114 0.142-0.534 0.241-0.751 0.305-1.378 0.404-2.759 0.777-4.144 1.158-0.554 0.152-1.121 0.314-1.684 0.447-0.14 0.034-0.283-0.025-0.417-0.064-0.14-0.040-0.277-0.075-0.414-0.113l-4.98-1.388c-0.266-0.076-0.57-0.173-0.831-0.231-0.044-0.318-0.070-0.694-0.094-1.016-0.025-0.343-0.061-0.686-0.092-1.026-0.060-0.685-0.113-1.376-0.183-2.061-0.14-1.365-0.233-2.743-0.369-4.111-0.135-1.362-0.229-2.735-0.364-4.1-0.102-1.040-0.169-2.060-0.269-3.089-0.032-0.335-0.072-0.71-0.073-1.045-0.030 0.002-0.046 0.010-0.054 0.025v0.092c0.003 0.025 0.008 0.054 0.011 0.088 0.010 0.092 0.010 0.162 0.016 0.253 0.005 0.067 0.020 0.177 0.026 0.245 0.006 0.089 0.006 0.162 0.018 0.251 0.019 0.152 0.020 0.333 0.044 0.496l0.308 3.509c0.047 0.33 0.074 0.881 0.113 1.249 0.030 0.282 0.055 0.753 0.087 1.006 0.028 0.22 0.042 0.555 0.068 0.755l0.2 2.241c0.006 0.068 0.022 0.171 0.025 0.246l0.042 0.51c0.016 0.154 0.029 0.342 0.049 0.491l0.069 0.754c0.010 0.089 0.009 0.162 0.019 0.251l0.091 1.001c0.011 0.251 0.080 0.728 0.095 0.999 0.026 0.475 0.098 1.009 0.136 1.511 0.006 0.075 0.019 0.158 0.027 0.242 0.005 0.056 0.025 0.182 0.037 0.233 0.017 0.071 0.014 0.046 0.177 0.094 0.069 0.019 0.135 0.036 0.212 0.058l3.838 1.072c0.147 0.043 0.286 0.074 0.435 0.117 0.314 0.092 1.771 0.483 1.946 0.511 0.088 0.014 1.331-0.335 1.501-0.386 0.136-0.040 0.289-0.081 0.423-0.117l4.691-1.324 0.014-0.139z"></path>
<path fill="#daeafb" style="fill: var(--color11, #daeafb)" d="M17.689 22.697c0.034-0.039 0.096-0.901 0.102-0.956l0.092-0.96c0.003-0.066 0.016-0.175 0.024-0.233l0.069-0.727c0.034-0.33 0.051-0.637 0.085-0.966 0.015-0.147 0.029-0.334 0.049-0.478l0.085-0.966c0.005-0.065 0.020-0.167 0.025-0.232 0.006-0.086 0.009-0.164 0.020-0.249 0.047-0.332 0.069-0.86 0.112-1.197l0.352-3.87c0.024-0.227 0.028-0.484 0.064-0.732 0.025-0.17 0.043-0.538 0.063-0.721l0.194-2.18c0.024-0.163 0.017-0.324 0.041-0.486 0.013-0.095 0.017-0.194 0.018-0.296v-0.224h-0.038c0.004 0.231-0.125 1.612-0.156 1.936-0.063 0.64-0.122 1.295-0.17 1.935-0.099 1.288-0.237 2.579-0.339 3.868-0.102 1.286-0.222 2.579-0.346 3.863-0.061 0.643-0.105 1.291-0.171 1.932-0.033 0.319-0.064 0.651-0.088 0.969-0.025 0.321-0.068 0.649-0.085 0.971z"></path>
<path fill="#ddebfa" style="fill: var(--color12, #ddebfa)" d="M15.076 20.84c0.074-0.025 0.057-0.073 0.067-0.153 0.008-0.067 0.015-0.133 0.023-0.201 0.184-1.819 0.326-3.635 0.506-5.451 0.006-0.063 0.012-0.129 0.019-0.192 0.008-0.070 0.041-0.15-0.022-0.176-0.041 0.507-0.109 1.028-0.15 1.541-0.040 0.519-0.091 1.043-0.138 1.562-0.082 0.893-0.157 1.822-0.256 2.713l-0.050 0.357z"></path>
</symbol>
<symbol id="icon-figma-svg" viewBox="0 0 22 32">
<path fill="#303030" style="fill: var(--color13, #303030)" d="M13.092 10.638c0.509 0.009 0.99 0.36 1.221 0.612 0.96 1.050 0.578 2.884-1.194 3.208 0.172 0.068 0.348 0.076 0.546 0.163 0.182 0.079 0.504 0.283 0.618 0.413 0.044 0.050 0.104 0.129 0.152 0.192 0.54 0.701 0.507 1.58 0.003 2.309-0.050 0.072-0.11 0.12-0.166 0.177-0.9 0.931-2.325 0.618-2.855-0.125-0.4-0.56-0.261-0.47-0.421-0.948l-0.014 1.66c-0.001 0.555 0 1.11 0 1.665 0 0.644-0.058 0.898-0.331 1.325-0.4 0.629-1.31 1.052-2.291 0.699-1.054-0.379-1.521-1.772-0.983-2.687 0.222-0.379 0.206-0.277 0.419-0.521 0.070-0.080 0.066-0.057 0.182-0.134 0.274-0.181 0.493-0.283 0.855-0.344-0.102-0.053-0.247-0.066-0.356-0.102-0.766-0.255-1.324-0.964-1.325-1.821 0-0.878 0.557-1.561 1.341-1.834 0.107-0.037 0.25-0.033 0.335-0.096-0.76-0.129-1.335-0.59-1.574-1.302-0.138-0.411-0.122-0.795 0.001-1.222 0.189-0.653 0.859-1.181 1.575-1.288 0.241-0.036 4.129-0.032 4.259 0.001zM1.814 9.495v13.763c0 1.118 1.188 2.294 2.294 2.294h13.763c0.538 0 1.207-0.36 1.571-0.723 0.203-0.204 0.338-0.4 0.475-0.672 0.105-0.208 0.248-0.603 0.248-0.899v-13.763c0-0.542-0.36-1.207-0.723-1.571-0.361-0.36-1.010-0.723-1.571-0.723h-13.763c-0.326 0-0.671 0.134-0.899 0.248-0.767 0.385-1.395 1.23-1.395 2.046z"></path>
<path fill="#9441ff" style="fill: var(--color14, #9441ff)" d="M8.835 18.3l2.147-0.003 0.014-1.66v-0.52l-0.012-1.661-2.154-0.008c-0.085 0.063-0.228 0.059-0.335 0.096-0.784 0.273-1.341 0.956-1.341 1.834 0.001 0.857 0.559 1.566 1.325 1.821 0.109 0.037 0.253 0.050 0.356 0.102z"></path>
<path fill="#fc3900" style="fill: var(--color15, #fc3900)" d="M8.831 14.447l2.154 0.008 0.004-3.814 2.103-0.003c-0.13-0.033-4.018-0.037-4.259-0.001-0.716 0.107-1.387 0.635-1.575 1.288-0.123 0.427-0.139 0.811-0.001 1.222 0.239 0.711 0.815 1.172 1.574 1.302z"></path>
<path fill="#ff5b49" style="fill: var(--color16, #ff5b49)" d="M10.985 14.455l1.632 0.009 0.502-0.006c1.771-0.323 2.154-2.157 1.194-3.208-0.231-0.252-0.712-0.603-1.221-0.612l-2.103 0.003-0.004 3.814z"></path>
<path fill="#00c87a" style="fill: var(--color17, #00c87a)" d="M10.982 18.297l-2.147 0.003c-0.362 0.060-0.582 0.163-0.856 0.344-0.116 0.076-0.112 0.054-0.182 0.134-0.213 0.245-0.197 0.142-0.419 0.521-0.539 0.915-0.071 2.308 0.983 2.687 0.98 0.352 1.891-0.070 2.291-0.699 0.273-0.428 0.331-0.681 0.331-1.325 0-0.555-0.001-1.11 0-1.665z"></path>
<path fill="#05b6ff" style="fill: var(--color18, #05b6ff)" d="M10.996 16.116v0.52c0.161 0.478 0.022 0.388 0.421 0.948 0.53 0.743 1.956 1.056 2.855 0.125 0.056-0.057 0.116-0.105 0.166-0.177 0.504-0.729 0.537-1.608-0.003-2.309-0.047-0.063-0.108-0.142-0.152-0.192-0.114-0.129-0.436-0.334-0.618-0.413-0.198-0.086-0.374-0.095-0.546-0.163l-0.502 0.006-0.075 0.027c-0.384 0.114-0.388 0.070-0.79 0.356-0.128 0.092-0.315 0.282-0.408 0.421-0.294 0.436-0.208 0.428-0.347 0.849z"></path>
<path fill="#313131" style="fill: var(--color19, #313131)" d="M10.996 16.116c0.139-0.421 0.053-0.413 0.347-0.849 0.094-0.139 0.28-0.33 0.408-0.421 0.402-0.286 0.406-0.241 0.79-0.356l0.075-0.027-1.632-0.009 0.012 1.661z"></path>
</symbol>
<symbol id="icon-node-svg" viewBox="0 0 22 32">
<path fill="#74b15d" style="fill: var(--color20, #74b15d)" d="M3.424 11.444c0.036 0.136 2.168 4.142 2.307 4.262 0.053-0.167 0.312-0.254 0.586-0.417 0.094-0.055 0.581-0.345 0.653-0.352 0.104-0.012 0.98 0.477 1.158 0.609 0.123 0.089 0.043-0.005 0.122 0.124 0.051 0.156 0.045 1.699-0.015 1.804-0.106 0.127-0.735-0.335-0.811-0.394l-0.014-0.96c-0.475-0.329-0.367-0.234-0.818-0.013-0.047 0.44 0.069 0.761-0.115 1.091 0.117 0.039 0.211 0.288 0.298 0.437 0.658 1.127 1.344 2.556 2.023 3.704 0.57 0.962 1.14 2.136 1.716 3.139 0.214 0.374 0.395 0.692 0.598 1.075 0.239-0.013 0.421-0.151 0.591-0.25 0.143-0.083 0.479-0.259 0.545-0.345 0.198-0.462-0.053-3.932 0.073-4.803-0.24 0.087-0.434 0.262-0.63 0.331-0.235 0.081-0.498-0.119-0.607-0.251 0.492-0.222 0.147 0.298 0.789-0.074 0.22-0.127 0.638-0.343 0.796-0.476l-0.001-1.229c-0.111-0.102-0.998-0.618-1.086-0.624-0.094-0.006-1.076 0.524-1.108 0.669v1.146c0.111 0.186 0.332 0.276 0.528 0.238 0.073-0.289-0.004-1.118 0.038-1.243 0.043-0.129-0.030-0.053 0.089-0.119 0.121 0.058 0.115 0.025 0.108 0.435-0.012 0.599 0.124 1.272-0.454 1.127-0.265-0.068-0.504-0.224-0.512-0.527-0.032-1.37-0.081-1.195 0.55-1.55 0.122-0.068 0.586-0.363 0.684-0.379 0.203-0.032 0.774 0.361 1.039 0.512l0.314 0.208c0.006 0.005 0.018 0.017 0.028 0.025l0.019-0.628c-0.153-0.212-0.751-0.442-0.988-0.628l0.010-1.444c0.242-0.19 0.819-0.398 0.985-0.63-0.137-0.259 0.068-4.162-0.018-4.74-0.023-0.147-0.725-1.323-0.858-1.553l-0.921-1.522c-0.323-0.089-0.541 0.066-0.783 0.209l-4.764 2.751c-0.364 0.22-1.968 1.076-2.144 1.256z"></path>
<path fill="#639d57" style="fill: var(--color21, #639d57)" d="M12.913 15.042c0.185-0.027 0.155-0.112 0.352-0.061 0.151 0.039 0.114 0.108 0.338 0.141-0.005-0.388-0.083-1.556 0.038-1.812 0.125-0.024 0.668 0.307 0.795 0.425l0.014 3.41-1.082 0.62c-0.291 0.155-0.222 0.011-0.462-0.019l-0.019 0.628c-0.083 0.361-0.015 0.805-0.022 1.185-0.009 0.497-0.377 0.35-0.543 0.597-0.126 0.872 0.125 4.341-0.073 4.803 0.237-0.063 1.158-0.632 1.429-0.793l1.394-0.797 0.101-0.056c-0.054-0.209-0.066-5.904-0.011-6.075-0.125-0.179-0.124-0.047-0.15-0.292l0.006-1.308c0.254-0.163 0.61-0.335 0.894-0.511 0.566-0.349 0.437-0.098 0.991 0.121-0.004-0.113 1.057-2.053 1.169-2.225l0.626-1.112c0.056-0.107 0.060-0.151 0.129-0.283-0.427-0.325-2.254-1.349-2.855-1.681l-4.296-2.487c-0.176-0.107-0.301-0.212-0.562-0.232l0.921 1.522c0.133 0.229 0.835 1.406 0.858 1.553 0.086 0.578-0.119 4.481 0.018 4.74z"></path>
<path fill="#488b45" style="fill: var(--color22, #488b45)" d="M16.905 15.247l0.632 0.412 0.003 0.473c-0.924 0.456-0.821 0.677-0.854-0.025-0.54-0.186-0.249-0.322-0.827 0.020v0.493c0.185 0.11 0.404 0.23 0.606 0.35 0.142 0.084 0.502 0.263 0.587 0.384-0.090 0.119-0.078 0.086-0.217 0.159-0.373 0.199-0.457 0.361-0.723 0.224-0.219-0.113-0.769-0.474-0.949-0.501-0.055 0.17-0.043 5.866 0.011 6.075l2.174-1.252c0.29-0.154 1.369-0.788 1.515-0.96 0.295-0.347 0.196-1.16 0.196-1.821l0.001-6.92c0.003-0.54-0.061-0.413-0.231-0.732-0.069 0.133-0.073 0.177-0.129 0.283l-0.626 1.112c-0.112 0.172-1.173 2.112-1.169 2.225z"></path>
<path fill="#488b45" style="fill: var(--color22, #488b45)" d="M3.342 20.574c-0.068 0.236-0.154 0.28-0.238 0.492 0.117 0.259 2.714 1.661 3.333 2.036 0.182 0.11 0.317 0.179 0.478 0.289 0.242 0.065 0.788 0.426 1.014 0.556l2.004 1.157c0.612 0.362 0.655 0.451 1.18 0.448-0.203-0.384-0.384-0.701-0.598-1.075-0.576-1.003-1.146-2.176-1.716-3.139-0.68-1.149-1.365-2.577-2.023-3.704-0.087-0.15-0.181-0.399-0.298-0.437-0.249 0.025-0.543 0.349-0.707 0.3-0.094-0.2-0.037-0.639-0.037-0.905l-0.344 0.523c-0.104 0.161-0.179 0.331-0.282 0.497-0.232 0.373-1.627 2.816-1.765 2.963z"></path>
<path fill="#639d57" style="fill: var(--color21, #639d57)" d="M2.957 20.837l-0.023-0.448c0.286 0.043 0.072-0.005 0.273 0.099 0.040 0.022 0.053-0.031 0.136 0.086 0.138-0.147 1.533-2.59 1.765-2.963 0.103-0.166 0.178-0.336 0.282-0.497l0.344-0.523-0.002-0.886c-0.139-0.121-2.271-4.127-2.307-4.262-0.683 0.3-0.496 0.989-0.496 2.016 0 1.098-0.052 7.173 0.028 7.377z"></path>
<path fill="#fff" style="fill: var(--color3, #fff)" d="M12.913 15.042c-0.166 0.233-0.742 0.441-0.985 0.63l-0.010 1.444c0.237 0.186 0.835 0.416 0.988 0.628 0.24 0.030 0.171 0.175 0.462 0.019l1.082-0.62-0.014-3.41c-0.127-0.117-0.67-0.448-0.795-0.425-0.121 0.256-0.043 1.424-0.038 1.812-0.224-0.033-0.187-0.102-0.338-0.141-0.197-0.051-0.167 0.034-0.352 0.061z"></path>
<path fill="#fff" style="fill: var(--color3, #fff)" d="M8.835 15.641l-0.006 1.438c0.133 0.109 1.127 0.715 1.252 0.719 0.114 0.003 0.766-0.396 0.948-0.501 0.11-0.064 0.256-0.121 0.303-0.212 0.050-0.179 0.047-1.053 0.025-1.29-0.026-0.258-0.359-0.347-0.774-0.596-0.463-0.279-0.395-0.343-0.881-0.054-0.278 0.164-0.624 0.337-0.866 0.496z"></path>
<path fill="#fff" style="fill: var(--color3, #fff)" d="M5.731 15.706l0.002 0.886c0 0.266-0.057 0.705 0.037 0.905 0.164 0.050 0.458-0.275 0.707-0.3 0.184-0.331 0.068-0.652 0.115-1.091 0.45-0.221 0.343-0.316 0.818 0.013l0.014 0.96c0.077 0.059 0.706 0.521 0.811 0.394 0.060-0.105 0.066-1.647 0.015-1.804-0.079-0.129 0.001-0.034-0.122-0.124-0.178-0.131-1.054-0.621-1.158-0.609-0.072 0.008-0.559 0.297-0.653 0.352-0.274 0.163-0.533 0.25-0.586 0.417z"></path>
<path fill="#fff" style="fill: var(--color3, #fff)" d="M15.163 17.237c0.18 0.027 0.73 0.388 0.949 0.501 0.266 0.137 0.35-0.025 0.723-0.224 0.139-0.073 0.126-0.041 0.217-0.159-0.085-0.121-0.445-0.3-0.587-0.384-0.201-0.121-0.42-0.24-0.606-0.35v-0.493c0.579-0.343 0.288-0.207 0.827-0.020 0.033 0.701-0.070 0.481 0.854 0.025l-0.003-0.473-0.632-0.412c-0.554-0.219-0.426-0.47-0.991-0.121-0.284 0.176-0.64 0.348-0.894 0.511l-0.006 1.308c0.026 0.245 0.025 0.113 0.15 0.292z"></path>
<path fill="#fff" style="fill: var(--color3, #fff)" d="M12.323 20.155c0.166-0.247 0.534-0.1 0.543-0.597 0.006-0.38-0.061-0.824 0.022-1.185-0.010-0.008-0.022-0.019-0.028-0.025l-0.314-0.208c-0.265-0.151-0.836-0.544-1.039-0.512-0.098 0.016-0.562 0.311-0.684 0.379-0.63 0.356-0.582 0.18-0.55 1.55 0.008 0.303 0.247 0.459 0.512 0.527 0.578 0.145 0.442-0.528 0.454-1.127 0.008-0.41 0.013-0.377-0.108-0.435-0.12 0.066-0.046-0.011-0.089 0.119-0.042 0.125 0.036 0.955-0.038 1.243-0.196 0.038-0.417-0.052-0.528-0.238v-1.146c0.031-0.145 1.014-0.676 1.108-0.669 0.088 0.005 0.975 0.521 1.086 0.624l0.001 1.229c-0.158 0.134-0.576 0.349-0.796 0.476-0.642 0.373-0.296-0.148-0.789 0.074 0.109 0.133 0.372 0.332 0.607 0.251 0.196-0.069 0.39-0.244 0.63-0.331z"></path>
<path fill="#fff" style="fill: var(--color3, #fff)" d="M12.217 19.369c-0.133 0.162-0.329 0.136-0.581 0.081-0.154-0.162-0.025-0.232-0.294-0.189-0.022 0.504 0.763 0.493 0.983 0.295 0.207-0.186 0.116-0.454-0.115-0.532-0.233-0.080-0.509-0.009-0.626-0.204 0.091-0.154 0.263-0.183 0.443-0.115 0.218 0.082 0.070 0.232 0.358 0.177-0.012-0.509-0.816-0.484-0.973-0.192-0.133 0.244 0.032 0.388 0.228 0.442 0.26 0.070 0.54-0.030 0.578 0.237z"></path>
<path fill="#639d57" style="fill: var(--color21, #639d57)" d="M12.774 16.163c-0.024 0.426-0.055 0.426 0.102 0.545 0.003 0.002 0.242 0.127 0.245 0.127 0.154 0.034 0.352-0.107 0.47-0.213l0.009-0.469c-0.376-0.225-0.428-0.31-0.825 0.010z"></path>
<path fill="#fff" style="fill: var(--color3, #fff)" d="M16.041 16.214l-0.006 0.306c0.258 0.147 0.237 0.167 0.481-0.014l0.005-0.275-0.208-0.131-0.271 0.114z"></path>
<path fill="#53ad3f" style="fill: var(--color23, #53ad3f)" d="M2.957 20.837c0.059 0.142 0.050 0.148 0.148 0.23 0.084-0.212 0.17-0.256 0.238-0.492-0.083-0.117-0.096-0.065-0.136-0.086-0.2-0.105 0.013-0.056-0.273-0.099l0.023 0.448z"></path>
<path fill="#b0cda9" style="fill: var(--color24, #b0cda9)" d="M12.986 18.5c0.228 0.116 0.24 0.231 0.476-0.040-0.001-0.214-0.061-0.282-0.269-0.318-0.191 0.101-0.19 0.111-0.207 0.358z"></path>
</symbol>
<symbol id="icon-react-svg" viewBox="0 0 22 32">
<path fill="#161425" style="fill: var(--color25, #161425)" d="M10.090 10.747c0.3-0.014 0.573-0.060 0.9-0.060 0.324 0 0.603 0.050 0.897 0.060 0.040-0.009 0.013 0.002 0.058-0.023 0.018-0.011 0.042-0.029 0.067-0.046 1.034-0.753 2.733-1.361 3.272 0.394 0.235 0.764 0.082 1.369 0.14 1.658 0.056 0.199 0.050 0.138 0.227 0.384 0.192 0.266 0.584 0.941 0.642 1.228 0.491 0.318 0.427 0.145 1.215 0.745 0.349 0.266 0.727 0.784 0.722 1.29-0.008 0.773-0.744 1.354-1.284 1.691-0.087 0.054-0.624 0.33-0.636 0.347-0.085 0.127-0.281 0.645-0.638 1.178-0.083 0.125-0.179 0.207-0.226 0.362-0.029 0.151 0.014 0.64 0 0.861-0.017 0.281-0.055 0.531-0.125 0.789-0.134 0.49-0.399 0.89-0.762 1.074-0.461 0.233-1.026 0.142-1.493-0.028-0.317-0.114-0.627-0.288-0.907-0.469l-0.206-0.139c-0.072-0.042-0.024-0.019-0.074-0.032-0.099-0.025-0.686 0.042-0.867 0.042-0.229 0-0.71-0.063-0.87-0.043-0.049 0.011-0.012-0.005-0.073 0.031l-0.495 0.308c-1.093 0.636-2.498 0.819-2.913-0.725-0.219-0.811-0.054-1.479-0.104-1.685-0.184-0.23-0.782-1.114-0.846-1.483-0.258-0.18-0.428-0.148-1.223-0.762-0.13-0.102-0.376-0.376-0.476-0.532-0.573-0.894-0.144-1.501 0.427-2.059 0.387-0.377 1.201-0.736 1.229-0.766 0.233-0.422 0.256-0.662 0.65-1.208 0.047-0.065 0.073-0.104 0.125-0.173 0.075-0.099 0.071-0.068 0.112-0.201 0.028-0.143-0.018-0.653-0.006-0.87 0.038-0.693 0.244-1.507 0.874-1.805 0.79-0.372 1.859 0.124 2.529 0.591 0.080 0.056 0.075 0.066 0.139 0.076zM2.787 17.019c0.303 4.318 4.114 7.904 8.833 7.561 4.336-0.315 7.917-4.104 7.573-8.834-0.314-4.331-4.101-7.917-8.834-7.573-4.347 0.316-7.904 4.1-7.572 8.846z"></path>
<path fill="#00d7fe" style="fill: var(--color26, #00d7fe)" d="M14.798 20.601c-0.013 0.513-0.131 1.249-0.501 1.469-0.236 0.14-0.569 0.097-0.83 0.020-0.14-0.041-0.585-0.209-0.665-0.303-0.205-0.073-1.235-0.833-1.313-1.005l1.085-1.376c0.061-0.085 0.055-0.127 0.179-0.147l0.817-0.096c0.354-0.052 0.684-0.117 1.021-0.187 0.139 0.318 0.208 1.227 0.207 1.625zM9.2 21.79c-0.064 0.085-0.528 0.255-0.67 0.294-0.261 0.072-0.589 0.122-0.833-0.006-0.375-0.197-0.497-0.912-0.5-1.459 0.002-0.882 0.129-0.983 0.21-1.616 0.614 0.093 0.961 0.182 1.629 0.248 0.318 0.030 0.259-0.029 0.409 0.184 0.173 0.246 0.353 0.472 0.54 0.699l0.56 0.651c-0.178 0.217-0.996 0.874-1.346 1.005zM11.013 20.301c-0.145-0.121-0.57-0.655-0.721-0.839l-0.088-0.134 1.599-0.002c-0.086 0.171-0.674 0.888-0.79 0.975zM7.6 18.368c0.039-0.308 0.323-0.896 0.421-1.195l0.412 0.706c0.070 0.124 0.136 0.233 0.205 0.346 0.069 0.115 0.151 0.219 0.203 0.339-0.425-0.033-0.835-0.123-1.24-0.196zM13.15 18.554c0.098-0.214 0.275-0.458 0.405-0.69s0.256-0.471 0.394-0.708l0.075 0.133c0.096 0.235 0.367 0.882 0.38 1.054-0.414 0.081-0.827 0.172-1.255 0.211zM5.393 17.517c-0.154-0.037-0.515-0.36-0.612-0.459-0.134-0.137-0.379-0.407-0.374-0.704 0.010-0.457 0.659-0.973 1.007-1.133 0.219-0.156 1.201-0.588 1.539-0.63 0.046 0.074 0.128 0.364 0.167 0.472l0.519 1.333c-0.009 0.079-0.588 1.333-0.68 1.806-0.266-0.054-0.608-0.195-0.847-0.296l-0.554-0.271c-0.093-0.052-0.121-0.054-0.166-0.116zM16.593 15.254c0.226 0.072 0.988 0.657 0.98 1.123-0.009 0.443-0.667 0.99-0.979 1.126-0.175 0.159-1.222 0.614-1.544 0.662-0.067-0.284-0.223-0.656-0.333-0.927-0.050-0.124-0.368-0.83-0.371-0.863-0.002-0.046 0.311-0.76 0.358-0.871 0.123-0.293 0.208-0.616 0.326-0.91 0.361 0.080 1.356 0.451 1.562 0.66zM10.054 14.098c0.622-0.034 1.206-0.036 1.826-0.004 0.19 0.010 0.386-0.023 0.476 0.113 0.322 0.488 0.609 0.988 0.92 1.535 0.079 0.138 0.14 0.26 0.214 0.405 0.117 0.232 0.136 0.178 0.018 0.408-0.306 0.608-0.524 0.986-0.873 1.559-0.385 0.63-0.289 0.524-0.679 0.544-0.591 0.031-1.241 0.031-1.84 0.006-0.258-0.011-0.401 0.019-0.483-0.107-0.322-0.495-0.615-0.982-0.922-1.533-0.078-0.14-0.142-0.264-0.213-0.406-0.119-0.237-0.145-0.192-0.020-0.437 0.399-0.788 0.654-1.208 1.118-1.932 0.051-0.079 0.047-0.122 0.159-0.137 0.085-0.012 0.209-0.011 0.297-0.015zM13.95 15.581l-0.793-1.368c0.414 0.037 0.834 0.134 1.226 0.211-0.042 0.205-0.335 1.031-0.433 1.157zM8.825 14.208c-0.024 0.087-0.32 0.542-0.4 0.683l-0.391 0.679c-0.003-0.004-0.011 0.011-0.016 0.015-0.108-0.35-0.34-0.791-0.414-1.177l1.221-0.2zM10.202 13.429c0.094-0.181 0.654-0.824 0.788-0.955 0.095 0.050 0.735 0.819 0.794 0.955h-1.582zM12.817 10.96c0.099-0.095 0.46-0.233 0.617-0.281 0.558-0.176 0.946-0.138 1.173 0.451 0.070 0.179 0.175 0.552 0.137 0.753 0.142 0.233-0.111 1.594-0.177 1.905-0.588-0.094-0.945-0.191-1.598-0.265-0.29-0.033-0.274 0.024-0.414-0.18-0.168-0.245-0.358-0.489-0.534-0.706-0.113-0.138-0.517-0.576-0.556-0.671 0.113-0.076 0.203-0.182 0.318-0.277 0.261-0.214 0.734-0.607 1.033-0.729zM7.233 11.803c-0.050-0.189 0.075-0.568 0.147-0.735 0.085-0.2 0.22-0.38 0.435-0.436 0.404-0.107 1.067 0.149 1.339 0.329 0.324 0.148 1.252 0.83 1.373 1.041l-0.291 0.318c-0.264 0.308-0.582 0.695-0.81 1.025-0.059 0.087-0.059 0.133-0.17 0.154l-1.834 0.278c-0.080-0.288-0.138-0.622-0.176-0.929-0.022-0.167-0.036-0.337-0.042-0.507-0.003-0.091-0.005-0.185-0.005-0.276 0-0.081-0.002-0.193 0.034-0.261zM11.887 10.747l-0.903 0.763c-0.251-0.229-0.496-0.457-0.777-0.659-0.037-0.026-0.033-0.019-0.067-0.049l-0.051-0.055c-0.064-0.011-0.059-0.020-0.139-0.076-0.67-0.468-1.739-0.963-2.529-0.591-0.63 0.297-0.836 1.112-0.874 1.805-0.012 0.217 0.034 0.726 0.006 0.87 0.066 0.106 0.075 0.458 0.103 0.613 0.028 0.151 0.111 0.449 0.11 0.579-0.163 0.071-0.381 0.12-0.552 0.182-0.177 0.065-0.377 0.161-0.548 0.209-0.028 0.030-0.843 0.389-1.229 0.766-0.571 0.558-1 1.165-0.427 2.059 0.1 0.156 0.346 0.43 0.476 0.532 0.795 0.614 0.965 0.582 1.223 0.762 0.342 0.116 0.687 0.304 1.055 0.377-0.009 0.149-0.080 0.39-0.11 0.553l-0.099 0.553c0.051 0.206-0.114 0.874 0.104 1.685 0.416 1.544 1.821 1.361 2.913 0.725l0.495-0.308c0.061-0.037 0.025-0.020 0.073-0.031 0.026-0.041 0.704-0.572 0.87-0.739l0.867 0.74c0.051 0.013 0.002-0.010 0.074 0.032l0.206 0.139c0.28 0.181 0.59 0.354 0.907 0.469 0.468 0.17 1.032 0.261 1.493 0.028 0.363-0.184 0.628-0.584 0.762-1.074 0.070-0.258 0.108-0.507 0.125-0.789 0.014-0.221-0.029-0.71 0-0.861-0.031-0.052-0.083-0.519-0.097-0.598-0.032-0.186-0.080-0.366-0.111-0.546 0.148-0.064 0.377-0.128 0.542-0.187 0.169-0.061 0.366-0.162 0.53-0.208 0.012-0.017 0.548-0.293 0.636-0.347 0.54-0.336 1.277-0.918 1.284-1.691 0.005-0.505-0.373-1.024-0.722-1.29-0.789-0.599-0.724-0.427-1.215-0.745-0.332-0.099-0.596-0.262-1.080-0.38-0.001-0.117 0.088-0.465 0.114-0.613 0.026-0.153 0.031-0.513 0.096-0.618-0.058-0.289 0.095-0.894-0.14-1.658-0.539-1.755-2.238-1.147-3.272-0.394-0.025 0.017-0.049 0.036-0.067 0.046-0.045 0.025-0.018 0.014-0.058 0.023z"></path>
<path fill="#060611" style="fill: var(--color27, #060611)" d="M2.787 17.019c-0.332-4.746 3.225-8.53 7.572-8.846 4.733-0.344 8.52 3.242 8.834 7.573 0.344 4.73-3.238 8.519-7.573 8.834-4.719 0.343-8.53-3.243-8.833-7.561zM9.61 7.3l-0.477 0.083-0.437 0.102-0.47 0.129c-0.055 0.034-0.827 0.308-0.867 0.31-0.060 0.074-0.385 0.201-0.487 0.251-0.153 0.073-0.335 0.194-0.482 0.242-0.061 0.082-0.319 0.201-0.422 0.274-0.073 0.052-0.151 0.101-0.22 0.149-0.077 0.052-0.142 0.127-0.221 0.138-0.045 0.086-0.014 0.053-0.101 0.081-0.029 0.060-0.098 0.094-0.163 0.144-0.075 0.059-0.117 0.117-0.199 0.139-0.037 0.087-0.119 0.136-0.191 0.167-0.026 0.075-0.069 0.092-0.127 0.141l-0.134 0.114c-0.002 0.002-0.010 0.006-0.012 0.008-0.003 0.002-0.009 0.005-0.013 0.008-0.037 0.057-0.041 0.053-0.092 0.102-0.017 0.018-0.029 0.032-0.045 0.046-0.044 0.039-0.013 0.016-0.057 0.045-0.011 0.020-0.002 0.010-0.023 0.038-0.052 0.069-0.183 0.225-0.248 0.248-0.031 0.072-0.080 0.154-0.167 0.191-0.022 0.082-0.068 0.11-0.128 0.186-0.054 0.068-0.093 0.145-0.155 0.176-0.028 0.087 0.005 0.056-0.081 0.101-0.011 0.076-0.078 0.134-0.128 0.207-0.049 0.070-0.097 0.147-0.149 0.22-0.078 0.111-0.2 0.375-0.283 0.436-0.049 0.145-0.169 0.33-0.242 0.482-0.050 0.102-0.177 0.427-0.251 0.487-0.002 0.040-0.276 0.812-0.31 0.867l-0.129 0.47-0.102 0.437-0.083 0.477-0.089 0.922-0.009 0.457 0.006 0.462 0.092 0.918c0.028 0.125 0.063 0.269 0.053 0.393 0.062 0.080 0.109 0.398 0.133 0.521 0.041 0.12 0.107 0.288 0.099 0.407l0.186 0.492c0.063 0.168 0.14 0.334 0.192 0.5 0.050 0.039 0.163 0.334 0.203 0.412 0.059 0.114 0.206 0.331 0.217 0.446 0.065 0.044 0.26 0.383 0.315 0.47 0.1 0.163 0.242 0.329 0.326 0.486l0.005 0.020c0.056 0.038 0.053 0.037 0.097 0.097 0.028 0.038 0.056 0.074 0.089 0.116 0.069 0.086 0.114 0.129 0.175 0.226 0.066 0.034 0.080 0.079 0.093 0.121 0.093 0.051 0.107 0.084 0.169 0.157 0.059 0.069 0.12 0.114 0.159 0.193 0.028 0.015 0.008 0.001 0.038 0.025 0.010 0.009 0.026 0.022 0.036 0.031 0.043 0.043 0.036 0.033 0.055 0.073 0.075 0.038 0.117 0.093 0.182 0.149 0.074 0.065 0.116 0.083 0.169 0.18 0.042 0.013 0.020-0.005 0.073 0.036 0.005 0.004 0.018 0.017 0.023 0.022 0.027 0.028 0.013 0.014 0.025 0.036 0.097 0.060 0.14 0.106 0.226 0.175 0.036 0.028 0.067 0.053 0.103 0.080 0.064 0.046 0.067 0.043 0.11 0.107l0.019 0.005c0.153 0.080 0.317 0.222 0.473 0.319 0.094 0.058 0.439 0.256 0.484 0.322 0.113 0.011 0.314 0.148 0.431 0.209 0.084 0.043 0.387 0.158 0.427 0.21l0.976 0.367c0.003 0.002 0.011 0.008 0.016 0.011 0.121-0.008 0.288 0.058 0.407 0.099l0.439 0.099c0.006 0.002 0.012 0.004 0.018 0.006 0.005 0.002 0.012 0.005 0.017 0.008l0.033 0.017c0.122-0.015 0.281 0.027 0.407 0.055l0.918 0.092 0.462 0.006 0.457-0.009 0.922-0.089 0.478-0.083 0.436-0.102 0.47-0.129c0.055-0.034 0.827-0.308 0.867-0.31 0.049-0.059 0.386-0.201 0.472-0.244 0.151-0.073 0.35-0.201 0.497-0.25 0.060-0.082 0.319-0.201 0.422-0.274 0.073-0.052 0.151-0.102 0.22-0.149 0.076-0.052 0.143-0.127 0.221-0.138 0.045-0.086 0.014-0.053 0.101-0.081 0.028-0.060 0.098-0.094 0.163-0.145 0.073-0.058 0.119-0.117 0.199-0.138 0.037-0.087 0.117-0.136 0.191-0.167 0.027-0.076 0.068-0.090 0.127-0.141l0.158-0.129c0.045-0.072 0.122-0.149 0.194-0.194 0.011-0.020 0.002-0.010 0.023-0.038 0.051-0.069 0.183-0.225 0.248-0.248 0.031-0.072 0.080-0.154 0.167-0.191 0.022-0.084 0.067-0.109 0.128-0.186 0.054-0.068 0.093-0.145 0.155-0.176 0.028-0.087-0.005-0.056 0.081-0.101 0.011-0.076 0.078-0.135 0.128-0.207 0.049-0.070 0.097-0.147 0.149-0.22 0.073-0.105 0.21-0.383 0.283-0.436 0.049-0.147 0.169-0.33 0.242-0.482 0.044-0.092 0.191-0.439 0.251-0.487 0.002-0.034 0.276-0.809 0.31-0.868l0.129-0.469 0.102-0.437 0.083-0.477 0.089-0.922 0.009-0.457-0.006-0.462-0.092-0.918c-0.028-0.125-0.063-0.269-0.053-0.393-0.063-0.080-0.109-0.398-0.133-0.521-0.041-0.12-0.107-0.287-0.099-0.407l-0.378-0.992c-0.050-0.039-0.163-0.334-0.203-0.412-0.059-0.114-0.206-0.331-0.217-0.446-0.065-0.044-0.26-0.383-0.314-0.47-0.1-0.161-0.247-0.331-0.328-0.487l-0.005-0.019c-0.056-0.038-0.053-0.037-0.097-0.097-0.028-0.038-0.056-0.074-0.089-0.116-0.069-0.086-0.114-0.129-0.175-0.226-0.004-0.002-0.011-0.012-0.013-0.008 0 0-0.053-0.023-0.080-0.113-0.093-0.052-0.107-0.084-0.169-0.157-0.059-0.069-0.12-0.114-0.159-0.193-0.028-0.015-0.008-0.001-0.038-0.025-0.010-0.009-0.026-0.022-0.036-0.031-0.043-0.043-0.036-0.033-0.055-0.073-0.075-0.038-0.117-0.093-0.182-0.149-0.074-0.065-0.116-0.083-0.169-0.18-0.042-0.013-0.020 0.005-0.073-0.036-0.005-0.004-0.018-0.017-0.023-0.022-0.027-0.028-0.013-0.014-0.025-0.036-0.097-0.061-0.14-0.106-0.226-0.175-0.036-0.028-0.067-0.053-0.103-0.080-0.064-0.046-0.067-0.043-0.11-0.108l-0.019-0.004c-0.156-0.081-0.326-0.227-0.487-0.328-0.087-0.054-0.426-0.249-0.47-0.314-0.115-0.011-0.332-0.158-0.446-0.217-0.078-0.040-0.373-0.153-0.412-0.203l-0.992-0.378c-0.121 0.008-0.288-0.058-0.407-0.099-0.124-0.024-0.442-0.070-0.521-0.133-0.124 0.010-0.268-0.025-0.393-0.053l-0.918-0.092-0.462-0.006-0.457 0.009-0.922 0.089z"></path>
<path fill="#3f3f54" style="fill: var(--color28, #3f3f54)" d="M10.816 15.087c0.751-0.109 1.363 0.449 1.451 1.088 0.108 0.773-0.444 1.374-1.089 1.467-0.764 0.111-1.374-0.444-1.466-1.088-0.113-0.787 0.445-1.372 1.104-1.467zM10.054 14.098c-0.088 0.004-0.212 0.003-0.297 0.015-0.112 0.015-0.109 0.058-0.159 0.137-0.464 0.724-0.72 1.144-1.118 1.932-0.125 0.246-0.098 0.2 0.020 0.437 0.071 0.142 0.136 0.266 0.213 0.406 0.307 0.552 0.6 1.039 0.922 1.533 0.082 0.126 0.225 0.096 0.483 0.107 0.599 0.025 1.249 0.025 1.84-0.006 0.39-0.020 0.294 0.086 0.679-0.544 0.349-0.573 0.567-0.951 0.873-1.559 0.117-0.231 0.099-0.177-0.018-0.408-0.074-0.145-0.136-0.267-0.214-0.405-0.311-0.547-0.598-1.047-0.92-1.535-0.091-0.136-0.287-0.103-0.476-0.113-0.621-0.031-1.205-0.030-1.826 0.004z"></path>
<path fill="#2b2a3d" style="fill: var(--color29, #2b2a3d)" d="M5.414 15.221c-0.029 0.429-0.106 0.514-0.106 1.156 0 0.442 0.027 0.624 0.094 1.027 0.016 0.095 0.027 0.063-0.010 0.113 0.045 0.063 0.073 0.065 0.166 0.116l0.554 0.271c0.239 0.101 0.581 0.242 0.847 0.296 0.092-0.473 0.671-1.727 0.68-1.806l-0.519-1.333c-0.039-0.108-0.121-0.398-0.167-0.472-0.337 0.042-1.32 0.474-1.539 0.63z"></path>
<path fill="#2b2a3d" style="fill: var(--color29, #2b2a3d)" d="M7.233 11.803c-0.037 0.068-0.034 0.18-0.034 0.261 0 0.091 0.002 0.185 0.005 0.276 0.006 0.17 0.020 0.34 0.042 0.507 0.038 0.307 0.096 0.641 0.176 0.929l1.834-0.278c0.111-0.022 0.111-0.067 0.17-0.154 0.228-0.33 0.546-0.716 0.81-1.025l0.291-0.318c-0.121-0.211-1.048-0.893-1.373-1.041l-1.037 0.502c-0.39 0.227-0.784 0.569-0.9 0.634 0.001-0.115 0.030-0.186 0.015-0.293z"></path>
<path fill="#2b2a3d" style="fill: var(--color29, #2b2a3d)" d="M14.745 11.883c-0.026 0.096-0.010 0.115-0.006 0.213-0.155-0.171-0.673-0.515-0.891-0.642-0.175-0.101-0.331-0.178-0.514-0.265-0.097-0.045-0.479-0.17-0.516-0.229-0.3 0.123-0.773 0.515-1.033 0.729-0.115 0.095-0.205 0.2-0.318 0.277 0.039 0.095 0.443 0.533 0.556 0.671 0.177 0.217 0.366 0.461 0.534 0.706 0.14 0.204 0.124 0.147 0.414 0.18 0.653 0.074 1.010 0.171 1.598 0.265 0.066-0.311 0.319-1.672 0.177-1.905z"></path>
<path fill="#2b2a3d" style="fill: var(--color29, #2b2a3d)" d="M12.802 21.787c0.012-0.047 0.421-0.19 0.537-0.239 0.435-0.189 0.875-0.476 1.232-0.764 0.070-0.057 0.161-0.147 0.227-0.183 0.001-0.398-0.068-1.307-0.207-1.625-0.337 0.070-0.667 0.136-1.021 0.187l-0.817 0.096c-0.124 0.019-0.117 0.061-0.179 0.147l-1.085 1.376c0.079 0.172 1.109 0.932 1.313 1.005z"></path>
<path fill="#2b2a3d" style="fill: var(--color29, #2b2a3d)" d="M7.197 20.619c0.065 0.032 0.176 0.134 0.237 0.185 0.184 0.154 0.492 0.361 0.708 0.485 0.186 0.107 0.334 0.19 0.531 0.273 0.075 0.031 0.507 0.189 0.527 0.228 0.35-0.131 1.168-0.789 1.346-1.005l-0.56-0.651c-0.186-0.227-0.366-0.454-0.54-0.699-0.151-0.213-0.092-0.154-0.409-0.184-0.668-0.066-1.015-0.155-1.629-0.248-0.081 0.634-0.208 0.734-0.21 1.616z"></path>
<path fill="#2b2a3d" style="fill: var(--color29, #2b2a3d)" d="M16.594 17.503c-0.027-0.039-0.016-0.001-0.019-0.064l0.069-0.482c0.039-0.371 0.038-0.819-0.001-1.191-0.012-0.108-0.095-0.442-0.050-0.513-0.206-0.209-1.201-0.581-1.562-0.66-0.119 0.294-0.204 0.617-0.326 0.91-0.046 0.111-0.36 0.824-0.358 0.871 0.002 0.033 0.321 0.739 0.371 0.863 0.11 0.27 0.266 0.642 0.333 0.927 0.322-0.047 1.369-0.502 1.544-0.662z"></path>
<path fill="#00d7fe" style="fill: var(--color26, #00d7fe)" d="M10.816 15.087c-0.659 0.096-1.217 0.681-1.104 1.467 0.093 0.644 0.703 1.199 1.466 1.088 0.645-0.094 1.197-0.695 1.089-1.467-0.088-0.639-0.7-1.197-1.451-1.088z"></path>
<path fill="#171526" style="fill: var(--color30, #171526)" d="M9.2 21.79c-0.019-0.040-0.451-0.197-0.527-0.228-0.197-0.083-0.345-0.166-0.531-0.273-0.215-0.124-0.524-0.331-0.708-0.485-0.061-0.052-0.172-0.153-0.237-0.185 0.003 0.547 0.125 1.262 0.5 1.459 0.244 0.128 0.572 0.079 0.833 0.006 0.142-0.039 0.607-0.209 0.67-0.294z"></path>
<path fill="#171526" style="fill: var(--color30, #171526)" d="M12.802 21.787c0.080 0.094 0.525 0.262 0.665 0.303 0.261 0.076 0.594 0.12 0.83-0.020 0.37-0.22 0.488-0.956 0.501-1.469-0.067 0.037-0.157 0.126-0.227 0.183-0.357 0.288-0.796 0.575-1.232 0.764-0.115 0.050-0.525 0.192-0.537 0.239z"></path>
<path fill="#171526" style="fill: var(--color30, #171526)" d="M5.393 17.517c0.037-0.051 0.026-0.018 0.010-0.113-0.067-0.403-0.094-0.585-0.094-1.027 0-0.642 0.077-0.727 0.106-1.156-0.348 0.161-0.998 0.677-1.007 1.133-0.005 0.296 0.24 0.567 0.374 0.704 0.097 0.099 0.458 0.422 0.612 0.459z"></path>
<path fill="#171526" style="fill: var(--color30, #171526)" d="M16.594 17.503c0.312-0.136 0.971-0.683 0.979-1.126 0.008-0.465-0.754-1.050-0.98-1.123-0.045 0.071 0.038 0.405 0.050 0.513 0.039 0.372 0.040 0.82 0.001 1.191l-0.069 0.482c0.003 0.063-0.008 0.025 0.019 0.064z"></path>
<path fill="#171526" style="fill: var(--color30, #171526)" d="M7.233 11.803c0.015 0.107-0.014 0.178-0.015 0.293 0.115-0.065 0.51-0.406 0.9-0.634l1.037-0.502c-0.273-0.18-0.935-0.435-1.339-0.329-0.215 0.056-0.35 0.236-0.435 0.436-0.071 0.167-0.196 0.546-0.147 0.735z"></path>
<path fill="#171526" style="fill: var(--color30, #171526)" d="M12.817 10.96c0.037 0.059 0.419 0.184 0.516 0.229 0.183 0.087 0.339 0.164 0.514 0.265 0.218 0.127 0.736 0.471 0.891 0.642-0.003-0.098-0.019-0.117 0.006-0.213 0.038-0.201-0.067-0.574-0.137-0.753-0.227-0.589-0.615-0.627-1.173-0.451-0.157 0.049-0.518 0.186-0.617 0.281z"></path>
<path fill="#2b2a3d" style="fill: var(--color29, #2b2a3d)" d="M13.15 18.554c0.428-0.039 0.841-0.13 1.255-0.211-0.013-0.171-0.284-0.819-0.38-1.054l-0.075-0.133c-0.138 0.237-0.264 0.476-0.394 0.708s-0.307 0.475-0.405 0.69z"></path>
<path fill="#2b2a3d" style="fill: var(--color29, #2b2a3d)" d="M11.013 20.301c0.115-0.087 0.704-0.804 0.79-0.975l-1.599 0.002 0.088 0.134c0.151 0.184 0.575 0.719 0.721 0.839z"></path>
<path fill="#2b2a3d" style="fill: var(--color29, #2b2a3d)" d="M7.6 18.368c0.405 0.073 0.816 0.163 1.24 0.196-0.052-0.121-0.134-0.224-0.203-0.339-0.069-0.113-0.135-0.222-0.205-0.346l-0.412-0.706c-0.098 0.298-0.383 0.887-0.421 1.195z"></path>
<path fill="#2b2a3d" style="fill: var(--color29, #2b2a3d)" d="M10.202 13.429h1.582c-0.059-0.136-0.699-0.905-0.794-0.955-0.134 0.13-0.694 0.774-0.788 0.955z"></path>
<path fill="#2b2a3d" style="fill: var(--color29, #2b2a3d)" d="M13.95 15.581c0.098-0.126 0.391-0.952 0.433-1.157-0.392-0.078-0.812-0.175-1.226-0.211l0.793 1.368z"></path>
<path fill="#2b2a3d" style="fill: var(--color29, #2b2a3d)" d="M7.605 14.409c0.073 0.386 0.306 0.826 0.414 1.177 0.005-0.004 0.013-0.019 0.016-0.015l0.391-0.679c0.080-0.141 0.376-0.596 0.4-0.683l-1.221 0.2z"></path>
<path fill="#2b2a3d" style="fill: var(--color29, #2b2a3d)" d="M16.294 14.343c-0.058-0.288-0.45-0.962-0.642-1.228-0.178-0.246-0.171-0.184-0.227-0.384-0.065 0.106-0.070 0.465-0.096 0.618-0.026 0.148-0.115 0.496-0.114 0.613 0.484 0.119 0.748 0.281 1.080 0.38z"></path>
<path fill="#2b2a3d" style="fill: var(--color29, #2b2a3d)" d="M5.668 14.336c0.171-0.049 0.372-0.144 0.548-0.209 0.17-0.063 0.389-0.111 0.552-0.182 0.001-0.129-0.082-0.428-0.11-0.579-0.028-0.155-0.038-0.507-0.103-0.613-0.041 0.134-0.037 0.102-0.112 0.201-0.052 0.069-0.078 0.109-0.125 0.173-0.393 0.546-0.417 0.785-0.65 1.208z"></path>
<path fill="#2b2a3d" style="fill: var(--color29, #2b2a3d)" d="M10.090 10.747l0.051 0.055c0.033 0.029 0.030 0.023 0.067 0.049 0.281 0.203 0.526 0.43 0.777 0.659l0.903-0.763c-0.294-0.011-0.573-0.060-0.898-0.060-0.326 0-0.6 0.046-0.9 0.060z"></path>
<path fill="#2b2a3d" style="fill: var(--color29, #2b2a3d)" d="M6.557 19.938l0.099-0.553c0.030-0.163 0.101-0.404 0.11-0.553-0.367-0.073-0.713-0.261-1.055-0.377 0.064 0.369 0.662 1.253 0.846 1.483z"></path>
<path fill="#2b2a3d" style="fill: var(--color29, #2b2a3d)" d="M15.447 19.954c0.047-0.155 0.143-0.237 0.226-0.362 0.357-0.532 0.553-1.050 0.638-1.178-0.164 0.046-0.361 0.147-0.53 0.208-0.165 0.059-0.394 0.124-0.542 0.187 0.031 0.18 0.079 0.36 0.111 0.546 0.014 0.079 0.066 0.546 0.097 0.598z"></path>
<path fill="#2b2a3d" style="fill: var(--color29, #2b2a3d)" d="M10.143 22.009c0.159-0.019 0.64 0.043 0.87 0.043 0.181 0 0.768-0.067 0.867-0.042l-0.867-0.74c-0.166 0.167-0.844 0.698-0.87 0.739z"></path>
</symbol>
</defs>
</svg>
