<svg aria-hidden="true" style="position: absolute; width: 0; height: 0; overflow: hidden;" version="1.1" xmlns="http://www.w3.org/2000/svg" xmlns:xlink="http://www.w3.org/1999/xlink">
<defs>
<symbol id="icon-github-1" viewBox="0 0 32 32">
<path d="M15.982 0.176c-8.73 0-15.806 7.189-15.806 16.057 0 7.489 5.046 13.78 11.873 15.555-0.005-1.856-0.011-4.132-0.014-4.841-4.561 1.008-5.524-1.965-5.524-1.965-0.746-1.925-1.821-2.437-1.821-2.437-1.488-1.034 0.112-1.013 0.112-1.013 1.646 0.117 2.514 1.717 2.514 1.717 1.462 2.546 3.836 1.81 4.771 1.385 0.147-1.076 0.572-1.811 1.041-2.227-3.642-0.421-7.47-1.849-7.47-8.232 0-1.818 0.641-3.304 1.689-4.471-0.17-0.42-0.732-2.114 0.159-4.408 0 0 1.377-0.447 4.51 1.707 1.308-0.369 2.711-0.554 4.104-0.561 1.393 0.006 2.797 0.191 4.108 0.561 3.13-2.155 4.504-1.707 4.504-1.707 0.893 2.294 0.331 3.988 0.161 4.408 1.051 1.166 1.687 2.652 1.687 4.471 0 6.398-3.836 7.806-7.487 8.219 0.588 0.517 1.112 1.53 1.112 3.084 0 1.234-0.006 4.075-0.011 6.231 6.683-1.874 11.593-8.090 11.593-15.476 0-8.868-7.077-16.057-15.806-16.057z"></path>
</symbol>
</defs>
</svg>
